<?xml version="1.0" encoding="utf-8"?>
<!-- Generator: Adobe Illustrator 24.0.1, SVG Export Plug-In . SVG Version: 6.00 Build 0)  -->
<svg version="1.1" id="Layer_1" xmlns="http://www.w3.org/2000/svg" xmlns:xlink="http://www.w3.org/1999/xlink" x="0px" y="0px"
	 viewBox="0 0 120 45" style="enable-background:new 0 0 120 45;" xml:space="preserve">
<style type="text/css">
	.st1{fill:#28445A;}
</style>
<g>
	<g>
		<g>
			<rect x="1" y="3.3" class="st1" width="115.3" height="1.2"/>
			<g>
				<path class="st1" d="M9.1,9.1c0.5,0.1,0.4,0.5,0.4,0.5s0,11.9,0,13.5c-0.2,1.5-2.8,1.5-2.8,1.5V9.1C6.7,9.1,8.3,9.1,9.1,9.1z
					 M7.1,8.4H1.6c0,0-0.6,0.1-0.5,0.4C1.2,9,1.3,9.2,1.9,9.2v15.1l-0.2,0.2c0,0-0.6,0-0.7,0.4s0.3,0.5,0.7,0.5c0.3,0,7.8,0,7.8,0
					s4.7-0.2,4.7-3.3s0-10.5,0-10.5s-0.7-2.9-3.7-3C7.3,8.4,7.1,8.4,7.1,8.4z"/>
				<ellipse class="st1" cx="17.2" cy="16.5" rx="1.3" ry="1.2"/>
				<ellipse class="st1" cx="35.1" cy="16.5" rx="1.3" ry="1.2"/>
				<path class="st1" d="M29.3,8.5c0.8,0,2.4,1.5,2.6,2.6c0.1,0.7,0.1,1.8,0.1,2.4c0,2.6-2.4,3.2-2.4,3.2c0.4,0.2,1.3,0.2,2.1,0.7
					c0.8,0.5,1,1.5,1,1.5v5.4l0.3,0.2c0,0,0.7,0,0.8,0s0.2,0,0.3,0.3c0,0.5-0.3,0.5-0.3,0.5s-4.4,0-5,0s-0.9-0.9-0.9-0.9s0-6,0-6.4
					s-1-0.6-1-0.6H25v7l0.1,0.2c0,0,0.6,0,0.7,0s0.3-0.1,0.3,0.3s-0.2,0.4-0.2,0.4s-6.2,0-6.4,0s-0.3-0.1-0.3-0.3
					c0-0.3,0.3-0.4,0.3-0.4H20l0.4-0.4V9.4l-0.2-0.2c0,0-0.2,0-0.5,0c-0.4,0-0.2-0.2-0.2-0.5s0.3-0.3,0.3-0.3h5.3
					C25,8.5,28.4,8.5,29.3,8.5z M26.3,9.1h-1.1v7.2h2.1c0,0,0.6,0,0.6-0.7s0-6.2,0-6.2s-0.2-0.6-0.7-0.6C26.5,9.1,26.3,9.1,26.3,9.1
					z"/>
				<path class="st1" d="M76.2,8.5c0.8,0,2.4,1.5,2.6,2.6c0.1,0.7,0.1,1.8,0.1,2.4c0,2.6-2.4,3.2-2.4,3.2c0.3,0.2,1.3,0.2,2.1,0.7
					s1,1.5,1,1.5v5.4l0.3,0.2c0,0,0.7,0,0.8,0s0.2,0,0.3,0.3c0,0.5-0.3,0.5-0.3,0.5s-4.4,0-5,0s-0.9-0.9-0.9-0.9s0-6,0-6.4
					s-1-0.6-1-0.6H72v7l0.1,0.2c0,0,0.6,0,0.7,0s0.3-0.1,0.3,0.3s-0.2,0.4-0.2,0.4s-6.2,0-6.4,0c-0.2,0-0.3-0.1-0.3-0.3
					c0-0.3,0.3-0.4,0.3-0.4H67l0.3-0.4V9.4L67,9.1c0,0-0.2,0-0.5,0s-0.2-0.2-0.2-0.5s0.3-0.3,0.3-0.3h5.3C72,8.5,75.4,8.5,76.2,8.5z
					 M73.3,9.1h-1.1v7.2h2.1c0,0,0.6,0,0.6-0.7s0-6.2,0-6.2s-0.2-0.6-0.7-0.6C73.5,9.1,73.3,9.1,73.3,9.1z"/>
				<path class="st1" d="M44.7,17.4h1.1l0.2,0.2c0,0,0,7.1,0,7.3s0.3,0.3,0.3,0.3s4.9,0,5.3,0c0.3,0,0.5-0.2,0.5-0.3
					c0-0.1,0-0.5-0.6-0.5S51,24.1,51,24.1s0-14.5,0-14.8S51,9,51.4,9S52,8.9,52,8.7s-0.3-0.3-0.3-0.3s-5,0-5.3,0
					c-0.2,0-0.2,0.3-0.2,0.3v7.1L46,16h-1.1l0,0h-1.4l-0.2-0.3V8.6c0,0,0-0.3-0.2-0.3s-5.3,0-5.3,0s-0.3,0.2-0.3,0.3
					C37.5,8.9,37.6,9,38,9c0.5,0,0.3,0,0.5,0.3c0,0.3,0,14.8,0,14.8s0.1,0.3-0.5,0.3c-0.5,0-0.6,0.4-0.6,0.5s0.1,0.3,0.5,0.3
					c0.3,0,5.3,0,5.3,0s0.2-0.1,0.3-0.3c0-0.3,0-7.3,0-7.3l0.2-0.2L44.7,17.4"/>
				<path class="st1" d="M59.1,25.4c-2.9,0-3.9-0.5-4.9-1.4c-1-1-1.2-2.9-1.2-3.6c0-0.8,0-1.4,0-4.1c0-2.2,0.2-3.3,0.6-4.8
					c0.5-1.9,1.3-2.4,2.3-2.9S59.3,8,59.3,8h0.4c0,0,2.1,0.1,3.1,0.6s1.8,0.8,2.3,2.9c0.3,1.5,0.6,2.6,0.6,4.8c0,2.8,0,3.2-0.1,4
					c-0.1,0.7-0.2,2.6-1.2,3.6s-1.8,1.4-4.8,1.4C59.6,25.4,59.1,25.4,59.1,25.4z M59.3,24.8c1.8,0,1.5-0.9,1.5-0.9s0-13.6,0-14
					c0-1.3-1-1.4-1.5-1.4H59c-0.3,0-1.5,0.1-1.5,1.4c0,0.3,0,14,0,14s-0.3,0.9,1.5,0.9H59.3z"/>
				<path class="st1" d="M96.6,25.4c-2.9,0-3.9-0.5-4.9-1.4c-1-1-1.2-2.9-1.2-3.6c-0.1-0.7-0.1-1.3-0.1-4c0-2.2,0.2-3.3,0.6-4.8
					c0.5-1.9,1.3-2.4,2.3-2.9s3.4-0.6,3.4-0.6H97c0,0,2.1,0.1,3.2,0.6c1,0.5,1.8,0.8,2.3,2.9c0.3,1.5,0.6,2.6,0.6,4.8
					c0,2.8,0,3.2-0.1,4c-0.1,0.7-0.2,2.6-1.2,3.6s-1.8,1.4-4.8,1.4C97,25.4,96.6,25.4,96.6,25.4z M96.7,24.8c1.8,0,1.5-0.9,1.5-0.9
					s0-13.6,0-14c0-1.3-1-1.4-1.5-1.4h-0.3c-0.3,0-1.5,0.1-1.5,1.4c0,0.3,0,14,0,14s-0.3,0.9,1.5,0.9H96.7z"/>
				<path class="st1" d="M85.2,8.4H91c0,0,0.2,0.2,0.2,0.4s0,1.8,0,1.8s0,0.3-0.3,0.5c-0.3,0-0.4-0.1-0.5-0.5c0-0.4,0-0.6,0-0.6
					h-2.8c0,0-0.3,0-0.3,0.3s0,14,0,14s0,0.4,0.6,0.4c0.3,0,0.3,0.1,0.3,0.4c0,0.2-0.1,0.4-0.4,0.4s-2.8,0-2.8,0l0,0
					c0,0-2.9,0-3.2,0s-0.3-0.1-0.3-0.4c0-0.2,0-0.4,0.3-0.4c0.7,0,0.6-0.4,0.6-0.4s0-13.7,0-14S82.1,10,82.1,10h-2.8
					c0,0,0,0.2,0,0.6s-0.1,0.6-0.5,0.5c-0.3,0-0.3-0.5-0.3-0.5s0-1.7,0-1.8c0-0.2,0.2-0.4,0.2-0.4L85.2,8.4"/>
				<path class="st1" d="M111.3,25.3h3.7V9.4c0,0-0.1-0.2,0.5-0.2c0.5,0,0.6-0.3,0.6-0.5c0-0.1-0.2-0.3-0.5-0.3c-0.2,0-2.2,0-2.2,0
					s-0.3,0-0.3,0.3s0.1,0.5,0.3,0.5c0.2,0,0.5-0.1,0.6,0.2c0,0.4,0,9.7,0,9.7l-4-9.8c0,0,0.1-0.2,0.5-0.2c0.3,0,0.5-0.2,0.5-0.5
					c0-0.2-0.2-0.3-0.3-0.3s-6.2,0-6.2,0s-0.3,0.1-0.3,0.3c0,0.3,0,0.4,0.3,0.4s0.6,0.1,0.6,0.2c0,0.1,0,15.1,0,15.1
					s0.1,0.2-0.5,0.2S104,24.8,104,25c0,0.1,0.2,0.3,0.5,0.3s2.2,0,2.2,0s0.3,0,0.3-0.3s-0.1-0.5-0.3-0.5c-0.2,0-0.5,0.1-0.6-0.2
					c0-0.4,0-12.3,0-12.3L111.3,25.3z"/>
			</g>
			<path class="st1" d="M118.3,11.2c-0.7,0-1.3-0.5-1.3-1.3s0.7-1.3,1.3-1.3c0.7,0,1.3,0.5,1.3,1.3S119.1,11.2,118.3,11.2z
				 M118.3,8.9c-0.5,0-0.9,0.4-0.9,1s0.3,1,0.9,1l0,0c0.5,0,0.9-0.3,0.9-1C119.3,9.3,118.9,8.9,118.3,8.9z M118.2,10.6h-0.3V9.2h0.6
				c0.3,0,0.6,0.1,0.6,0.5c0,0.3-0.2,0.4-0.3,0.4l0.3,0.7h-0.3l-0.3-0.6h-0.1v0.5L118.2,10.6L118.2,10.6z M118.5,9.8
				c0.1,0,0.2,0,0.2-0.2s-0.2-0.2-0.3-0.2h-0.2v0.4H118.5L118.5,9.8z"/>
			<path class="st1" d="M4.1,39.6c0.1-0.1,0.2-0.2,0.3-0.3s0.3-0.4,0.6-0.6c0.3-0.3,0.6-0.6,0.7-0.7c0.2-0.2,0.3-0.3,0.5-0.5
				c0.3-0.3,0.6-0.6,0.7-0.8v-0.1l0,0H6.6c-0.2,0-0.3,0-0.3,0c-0.2,0-0.3,0-0.5-0.1s-0.3-0.1-0.3-0.2c-0.1-0.1-0.2-0.2-0.3-0.3
				c-0.1,0.1-0.2-0.1-0.3-0.4c0.3,0.1,0.5,0.1,0.7,0.1s0.6,0,1.1,0s1,0,1.5-0.1h0.1c0.1-0.1,0.1-0.1,0.1-0.1l2.1-1.8l1.8-1.5
				c0.5-0.4,0.8-0.7,1.2-1c0.3-0.3,0.7-0.6,0.8-0.7l0.2-0.1c0.2-0.1,0.3-0.2,0.3-0.2c0.2,0,0.5,0.1,0.7,0.3c0.3,0.2,0.5,0.4,0.6,0.7
				c0.1,0.2,0.1,0.4,0,0.7c-0.2,0.9-0.4,1.7-0.5,2.3l-0.2,1.2v0.1h0.1c0.9,0,1.5,0,1.8,0c0.2,0,0.3,0.1,0.4,0.2
				c0.1,0.2,0,0.2-0.3,0.3h-0.2l-0.9,0.1L14.9,36v0.1l-0.2,0.2c-0.2,1.3-0.3,2.4-0.3,3.4c0,0.5,0,0.8,0.1,1.2
				c0.3-0.1,0.6-0.3,0.8-0.6c0.3-0.2,0.6-0.5,0.7-0.7c0.2-0.3,0.4-0.6,0.5-0.8c0-0.1,0.1-0.2,0.2-0.2s0.2,0,0.2,0.2
				c0,0.1,0,0.2,0,0.3c-0.4,1.2-0.9,2.3-1.8,3.2c-0.2,0.2-0.3,0.3-0.5,0.3c-0.1,0-0.4-0.1-0.7-0.3s-0.5-0.3-0.7-0.7
				c-0.2-0.3-0.4-0.5-0.5-0.7c-0.1,0-0.1-0.2-0.1-0.4c-0.1-0.6,0-1.3,0.1-2.4l0.2-1.1l0.2-1.1L12.2,36l-0.9,0.1L10,36l-1.2,0.3
				l-0.7,0.9l-0.7,0.9C6.3,39.6,5.7,40,6,39.8c0.8-1-1.4,1.7-1.8,2.1c-0.3,0.4-0.6,0.6-0.7,0.7c-0.1,0.1-0.3,0.1-0.5,0.1
				c-0.3,0-0.8-0.1-1.2-0.3s-0.7-0.7-0.5-1C1.8,40.8,2.3,41.2,4.1,39.6z M9.5,35.4h0.7h0.7l1.2-0.1h1.2l0.2-0.8l0.2-0.8
				c0.1-0.5,0.2-0.9,0.3-1.4s0.2-0.8,0.4-1.2c-0.4,0.2-0.7,0.5-1,0.7s-0.6,0.5-0.9,0.7C11.3,33.5,10.3,34.5,9.5,35.4L9.5,35.4z"/>
			<path class="st1" d="M19.5,35.4c0.6-0.8-0.2-0.8-0.2-0.9c0-0.2,0.3-0.1,0.4-0.1s0.2,0.1,0.3,0.1c0.1,0.1,0.2,0.3,0.3,0.4
				c0.1,0.3,0,0.6,0,0.7c-0.1,0.3-0.1,0.3-0.2,0.7l-0.2,0.4c-0.3,0.3-0.5,0.8-0.7,1.4c0.6-0.7,1.2-1.2,1.8-1.7
				c0.8-0.7,1.4-1.2,1.8-1.5c0.2-0.1,0.3-0.2,0.5-0.2s0.3,0.1,0.5,0.2c0.2,0.1,0.3,0.2,0.3,0.3c0.1,0.1,0,0.3-0.1,0.5
				c-0.3,0.5-0.5,0.7-0.6,0.8s-0.2,0.3-0.2,0.3c-0.1,0.1-0.1,0.3-0.2,0.4c-0.1,0.3-0.2,0.5-0.3,0.7c0.3-0.4,0.7-0.7,1.1-1.1l1.1-0.9
				c0.6-0.6,1-0.8,1.3-1c0.2-0.1,0.3-0.2,0.3-0.2c0.2,0,0.3,0.1,0.5,0.2c0.2,0.1,0.3,0.3,0.4,0.5c0.1,0.1,0,0.3-0.1,0.4
				c-0.6,0.7-0.9,1.5-1.3,2.4c0.6-0.4,1.3-0.7,2.1-0.8c0.3-0.1,0.7-0.1,0.7-0.1c0.2,0,0.3,0.1,0.3,0.2c0,0.1-0.1,0.2-0.3,0.2
				c-0.5,0-0.8,0.1-1.2,0.3c-0.4,0.2-0.7,0.4-1,0.6c-0.3,0.3-0.6,0.7-0.8,1.3c-0.1,0.1-0.1,0.2-0.1,0.3s0,0.1-0.1,0.1
				c0,0.1-0.1,0.2-0.1,0.2s-0.1,0.1-0.2,0c-0.2,0-0.4-0.1-0.6-0.2c-0.2-0.2-0.4-0.3-0.4-0.5c-0.1-0.2-0.1-0.3,0-0.7
				c0.1-0.3,0.2-0.6,0.4-1c0.2-0.5,0.4-0.7,0.5-1l0.1-0.1v-0.1l-0.1-0.1c0,0-0.2,0-0.3,0.1c-0.5,0.2-1,0.7-1.7,1.3
				c-0.6,0.7-1,1.4-1.2,2.1c-0.1,0.2-0.2,0.2-0.3,0.2c-0.2,0-0.3-0.1-0.5-0.2c-0.3-0.2-0.4-0.3-0.5-0.5c0-0.1,0-0.2,0-0.3
				c0.1-0.6,0.4-1.4,0.8-2.3l0.1-0.1l0.1-0.1c0-0.1,0-0.1,0-0.1s0,0-0.1,0c0,0-0.1,0-0.3,0.1c-0.6,0.3-1,0.7-1.5,1.3
				c-0.6,0.6-0.9,1.3-1.3,2.1c-0.1,0.2-0.1,0.3-0.2,0.3c0,0-0.1,0-0.2,0c-0.2,0-0.3-0.1-0.5-0.2c-0.2-0.2-0.3-0.3-0.3-0.5
				c-0.1-0.3,0-0.7,0.3-1.3c0.3-0.7,0.7-1.4,1.1-1.9L19.5,35.4z"/>
			<path class="st1" d="M29.4,37.6c-0.2-0.1-0.3,0.3-0.4,0.6s-0.1,0.3,0.1,0.6c0.1,0.1,0.3,0.3,0.6,0.3c0.6,0.1,1,0.1,1.9-0.3
				c0.7-0.3,2.1-1.4,2.4-1.7c2.1-1.5,2.1-2.5,2.3-2.5c0.1,0-0.3,1.4-0.3,1.5s0,0.1,0,0.1s-0.1,0.1-0.3,0.1c-0.6,0.1-1.2,0.9-1.5,1.2
				s-1.2,1-1.5,1.4c-0.4,0.4-0.9,0.8-1.8,1c-0.7,0.2-1.4,0.2-1.8,0c-0.6-0.3-0.8-0.7-0.9-1c-0.2-0.3-0.1-1,0.2-1.5
				c0.3-0.6,0.7-1.1,1.4-1.5c0.5-0.3,0.9-0.7,1.5-0.8c0.5-0.1,0.8-0.3,1.1-0.3c0.2,0,0.4,0,0.7,0.1c0.2,0.1,0.4,0.2,0.6,0.4
				c0.2,0.1,0.2,0.3,0.3,0.5c0.1,0.4-0.1,0.7-0.3,1.2c-0.3,0.4-0.7,0.7-0.9,0.8c-0.3,0.2-0.7,0.3-1.3,0.3
				C30.1,38,29.8,37.8,29.4,37.6z M29.6,37.4c0.3,0.2,1.1,0.3,1.7,0.1c0.7-0.3,0.9-0.7,1.1-1s0.2-0.5,0.2-0.6s-0.1-0.1-0.2-0.1
				c-0.3,0-0.7,0.1-1.2,0.4C30.7,36.4,30,37.1,29.6,37.4z"/>
			<path class="st1" d="M36,35c0.1-0.2,0.2-0.3,0.2-0.3s0.1,0,0.2,0c0.2,0,0.3,0.1,0.5,0.2c0.2,0.1,0.3,0.3,0.3,0.5
				c0.1,0.2,0.1,0.4-0.1,0.6l-0.7,0.9c-0.3,0.3-0.5,0.7-0.7,1.2c0.3-0.3,0.6-0.6,0.8-0.8s0.3-0.3,0.6-0.5l1.1-0.9
				c0.5-0.5,0.8-0.7,1-0.8c0.2-0.2,0.4-0.2,0.6-0.2c0.2,0,0.3,0.1,0.5,0.2c0.2,0.1,0.3,0.3,0.3,0.5c0.1,0.1,0,0.3-0.1,0.5l-0.3,0.5
				c-0.3,0.3-0.5,0.7-0.5,0.8c-0.1,0.2-0.1,0.3,0,0.6c0,0.1,0.1,0.2,0.1,0.3c-0.3,0-0.7-0.1-0.8-0.3c-0.3-0.1-0.5-0.3-0.5-0.5
				c0-0.1,0-0.3,0.2-0.7c-0.7,0.3-1.2,0.7-1.5,1c-0.7,0.6-1.2,1.4-1.7,2.3c-0.2,0.3-0.3,0.5-0.5,0.5c-0.1,0-0.3-0.1-0.6-0.3
				C34.2,40.1,34,40,34,39.8c-0.1-0.1,0-0.3,0-0.5c0.4-0.9,0.7-1.8,1.2-2.5l0.1-0.2L36,35z"/>
			<path class="st1" d="M104.9,37.5c-0.2-0.1-0.3,0.3-0.3,0.6c-0.1,0.3-0.1,0.3,0.1,0.6c0.1,0.1,0.3,0.3,0.6,0.4
				c0.6,0.1,1,0.1,1.9-0.3c0.7-0.3,2.1-1.4,2.4-1.7c2.1-1.5,2.1-2.5,2.3-2.5c0.2,0-0.3,1.4-0.3,1.5s0,0.1,0,0.1s-0.1,0.1-0.3,0.1
				c-0.6,0.1-1.2,0.9-1.5,1.2s-1.2,1-1.5,1.4c-0.5,0.4-0.9,0.8-1.8,1c-0.7,0.2-1.4,0.2-1.8,0c-0.6-0.3-0.8-0.7-0.9-1
				c-0.2-0.3-0.1-1,0.2-1.5c0.3-0.6,0.7-1.1,1.4-1.5c0.5-0.4,0.9-0.7,1.5-0.8c0.5-0.1,0.8-0.3,1.1-0.3c0.2,0,0.3,0,0.7,0.1
				c0.2,0.1,0.3,0.2,0.6,0.4c0.2,0.1,0.2,0.3,0.3,0.5c0.1,0.3-0.1,0.7-0.4,1.2c-0.3,0.4-0.7,0.7-0.9,0.8c-0.3,0.2-0.7,0.3-1.3,0.3
				C105.6,37.8,105.2,37.6,104.9,37.5z M105,37.2c0.3,0.2,1.1,0.3,1.7,0.1c0.7-0.3,0.9-0.7,1.1-1c0.1-0.3,0.2-0.5,0.2-0.6
				s-0.1-0.1-0.2-0.1c-0.3,0-0.7,0.1-1.2,0.4C106.1,36.2,105.3,36.8,105,37.2z"/>
			<path class="st1" d="M111.4,34.9c0.1-0.2,0.2-0.3,0.2-0.3s0.1,0,0.2,0c0.2,0,0.3,0.1,0.5,0.2c0.2,0.1,0.3,0.3,0.3,0.5
				c0.1,0.2,0.1,0.3-0.1,0.6l-0.7,0.9c-0.3,0.3-0.5,0.7-0.7,1.2c0.3-0.3,0.6-0.6,0.8-0.8c0.2-0.2,0.3-0.3,0.6-0.5l1.1-0.9
				c0.5-0.5,0.8-0.7,1-0.8c0.2-0.2,0.3-0.2,0.6-0.2s0.3,0.1,0.5,0.2c0.2,0.1,0.3,0.3,0.3,0.5c0.1,0.1,0,0.3-0.1,0.5l-0.3,0.5
				c-0.3,0.3-0.5,0.7-0.5,0.8c-0.1,0.2-0.1,0.3,0,0.6c0,0.1,0.1,0.2,0.1,0.3c-0.3-0.1-0.7-0.1-0.8-0.3c-0.3-0.1-0.5-0.3-0.5-0.5
				c0-0.1,0-0.3,0.2-0.7c-0.7,0.3-1.2,0.7-1.5,1c-0.7,0.6-1.2,1.4-1.7,2.3c-0.2,0.3-0.3,0.5-0.5,0.5c-0.1,0-0.3-0.1-0.6-0.3
				c-0.2-0.2-0.3-0.3-0.3-0.5c-0.1-0.1,0-0.3,0-0.5c0.3-0.9,0.7-1.8,1.2-2.5l0.1-0.2L111.4,34.9z"/>
			<path class="st1" d="M47.7,36.4c-0.1-0.2,0.3-0.7,0.3-0.7s-0.1,0-0.2,0c-0.2,0.1-1.8,0.5-2.4,2.1c-0.2,0.5-0.3,0.7-0.2,0.9
				c0.3,0.6,1.4,0.2,1.8,0.1c0.9-0.3,1.8-0.9,2.4-1.7c0.3-0.3,0.6-0.1,0.7-0.1s0.1,0,0.2,0c0.1,0,0.1,0.1,0.1,0.1
				c0,0.1,0,0.3-0.1,0.3c-0.3,0.3-0.5,0.6-0.8,0.7c-0.5,0.2-0.6,0.3-0.8,0.7c-0.7,0.8-1.5,1.1-2.1,1.2c-0.1,0-0.7,0.2-1.5-0.2
				c-0.6-0.3-0.7-0.7-0.9-1.1c-0.1-0.3-0.1-0.7,0.1-1.2c0.2-0.5,0.5-0.9,0.9-1.3c0.2-0.2,0.5-0.3,0.7-0.6c0.3-0.2,0.6-0.4,0.8-0.5
				c0.3-0.1,0.6-0.3,0.9-0.4c0.2-0.1,0.4-0.1,0.6-0.1c0.2,0,0.3,0,0.6,0.2c0.2,0.1,0.3,0.2,0.3,0.3c0.1,0.2,0,0.3-0.2,0.4
				C48.4,35.8,48,36,47.7,36.4z"/>
			<path class="st1" d="M54.4,37.9c0.5-0.3,1.1-0.5,1.9-0.7c0.3-0.1,0.6-0.1,0.7-0.1s0.3,0.1,0.3,0.2c0,0.1-0.1,0.2-0.3,0.2
				c-0.3,0.1-0.8,0.1-1.1,0.3c-0.4,0.1-0.7,0.3-0.9,0.5c-0.3,0.2-0.5,0.5-0.7,0.7c-0.2,0.3-0.4,0.7-0.5,1c0,0.1-0.1,0.2-0.1,0.2
				s-0.1,0.1-0.2,0.1c-0.1,0-0.3-0.1-0.5-0.2c-0.3-0.2-0.5-0.3-0.6-0.6c-0.1-0.1,0-0.3,0.1-0.7c0.1-0.3,0.3-0.7,0.6-1.3l0.1-0.2
				L53,37.5c-0.7,0.9-1.5,1.7-2.3,2.3c-0.4,0.3-0.6,0.3-0.7,0.3c-0.1,0-0.5-0.1-0.7-0.3c-0.3-0.3-0.5-0.5-0.7-0.7
				c-0.2-0.3-0.1-0.8,0.3-1.4c0.4-0.6,0.9-1.1,1.7-1.5c0.6-0.3,1.1-0.7,1.8-1s1.2-0.5,1.5-0.5s0.5,0.1,0.7,0.2
				c0.2,0.1,0.3,0.3,0.5,0.5c0.1,0.2,0,0.4-0.2,0.6c0.2,0.1,0.2,0.2,0.3,0.3c0,0.1,0,0.2-0.1,0.4l-0.3,0.7
				C54.6,37.2,54.5,37.5,54.4,37.9z M53.7,36c0-0.1-0.1-0.1-0.2-0.1c-0.1,0-0.3,0-0.6,0.1s-0.6,0.2-0.7,0.3
				c-0.3,0.1-0.6,0.3-0.8,0.5c-0.3,0.2-0.6,0.3-0.7,0.7c-0.3,0.3-0.5,0.5-0.6,0.7c-0.2,0.3-0.3,0.5-0.3,0.6s0.1,0.1,0.2,0.1
				c0.2,0,0.5-0.1,0.8-0.3c0.8-0.3,1.5-0.8,2.2-1.5C53.4,36.5,53.7,36.1,53.7,36L53.7,36z"/>
			<path class="st1" d="M59.1,32.5c0.2,0,0.3,0.1,0.4,0.2c0.1,0.1,0.2,0.2,0.2,0.4s-0.1,0.3-0.2,0.5c-0.1,0.2-0.4,0.3-0.7,0.6
				S58,34.8,57.4,35c-0.6,0.3-0.8,0.5-1,0.5c-0.1,0-0.2-0.1-0.2-0.2c0-0.2,0.6-0.4,0.9-0.8c0.6-0.7,0.7-1.2,1.1-1.5
				C58.5,32.7,58.9,32.5,59.1,32.5z"/>
			<path class="st1" d="M62,38.2c-0.7,0.3-1.1,0.5-1.8,0.8c-0.8,0.5-1.5,0.7-1.8,1c-0.1,0.1-0.2,0.1-0.2,0.1c-0.1,0-0.2-0.1-0.3-0.2
				c-0.2-0.1-0.3-0.3-0.3-0.3s0-0.2,0.1-0.3s0.3-0.3,0.7-0.5c0.6-0.3,1.2-0.6,1.8-0.8c0.2-0.1,0.6-0.2,1-0.3c-0.3,0-0.6,0-1-0.1
				c-0.7,0-1.1-0.1-1.3-0.1c-0.3-0.1-0.5-0.2-0.5-0.5c-0.1-0.2,0-0.3,0.2-0.5s0.6-0.4,1-0.7c0.5-0.2,0.9-0.4,1.4-0.6
				c0.7-0.2,1.1-0.3,1.4-0.3c0.1,0,0.2,0,0.4,0.1c0.1,0.1,0.2,0.2,0.2,0.3s0,0.2,0,0.2c0,0.1-0.1,0.2-0.6,0.2l-1,0.2
				c-0.7,0.1-1.1,0.3-1.5,0.7c-0.1,0.1-0.1,0.1-0.1,0.2c0,0,0.1,0.1,0.2,0.1s0.3,0.1,0.5,0.1c0.3,0,0.5,0.1,0.7,0.1
				c0.3,0,0.7,0.1,0.9,0.1s0.3,0.1,0.3,0.2C62.5,38.1,62,38.2,62,38.2z"/>
			<path class="st1" d="M75.7,30.7c2.2,0.1,4.6,2.1,0.9,3.7c0,0,2.1-0.2,3.2,1c0.7,0.7,0.3,1.4,0.5,1.5c0.9,0.2,1.4,0.5,1.5,0.7
				c0,0,0,0.1,0,0.2c-0.2-0.1-0.3-0.3-0.7-0.3c-0.2-0.1-0.6-0.1-0.9-0.2l-0.1-0.1c-0.1,0.2-0.2,0.5-0.6,0.8
				c-0.3,0.3-0.7,0.7-0.9,0.9c-0.6,0.3-1.1,0.7-1.8,1c-0.7,0.3-1.5,0.7-2.4,0.9c-1.9,0.7-3.7,0.9-5,0.9c-0.6,0-1-0.2-1.5-0.5
				c-0.3-0.3-0.7-0.6-1.1-0.9c-0.3-0.4-0.6-0.7-0.7-1.1c-0.2-0.5,0-0.9,0.6-1.2c0.5-0.3,1.2-0.6,2.1-0.7v-0.1
				c0.2-0.5,0.5-0.9,0.7-1.5c0.3-0.6,0.7-1.1,0.9-1.5c0.4-0.6,0.7-1.1,1.2-1.7c0.2-0.2,0.3-0.3,0.5-0.3c0.1,0,0.2,0,0.3,0.1
				c0.3,0.2,0.6,0.4,0.7,0.5c0,0.1,0,0.3-0.1,0.5c-0.1,0.1-0.3,0.3-0.7,0.8c0,0.1-0.1,0.2-0.2,0.3s-0.2,0.3-0.2,0.3l0,0H72
				c0.2,0,0.7-0.1,1.2-0.2c0.1,0,0.7-0.2,1-0.2c0.5-0.1,0.7-0.2,1.2-0.3c1.1-0.5,1.5-1.3,1.4-1.8c0,0-0.9-3.2-7.6,1.4
				C69,33.8,71.5,30.6,75.7,30.7z M69.7,38.5L69.7,38.5L69.7,38.5l-1,1.8l-0.1,0.2c-0.2-0.2-0.4-0.3-0.5-0.6S68,39.3,68,39v-0.1
				c-0.3,0.2-0.7,0.3-0.9,0.7c-0.2,0.3-0.3,0.5-0.2,0.7c0.2,0.3,0.7,0.6,1.7,0.6c0.7,0,1.5-0.1,2.6-0.3c1.1-0.3,2.1-0.6,3-0.8
				c1.8-0.7,3.1-1.5,3.9-2.3c-0.1,0-0.3,0-0.5,0c-1,0-1.9,0.1-2.9,0.2c-1,0.1-1.9,0.3-2.8,0.5C71.1,38,70.4,38.2,69.7,38.5z
				 M70.4,37.2L70.4,37.2L70.4,37.2c0.7-0.1,1.3-0.3,1.9-0.4c0.7-0.1,1.4-0.2,2.1-0.2c0.7-0.1,1.5-0.1,2.2-0.1s1.3,0,1.8,0.1h0.1
				c0.1-0.3,0.2-0.6,0.1-0.7c-0.1-0.3-0.3-0.5-0.8-0.7S76.8,35,76,35c-0.5,0-0.9,0-1.5,0.1s-1.1,0.2-1.8,0.3c-0.6,0.1-1,0.3-1.4,0.4
				l-0.2,0.1h0.1L71,36.2c-0.2,0.2-0.3,0.4-0.3,0.5L70.4,37.2L70.4,37.2z"/>
			<path class="st1" d="M90,34.7c0.2-0.2,0.3-0.2,0.3-0.2c0.1,0,0.3,0.1,0.3,0.2c0.1,0.1,0.2,0.3,0.3,0.4c0,0.1,0.1,0.2,0,0.3
				c0,0.1-0.1,0.2-0.2,0.3c0,0.1-0.2,0.3-0.5,0.7v0.1c-0.3,0.4-0.7,1.4-0.9,1.8c0,0.1,0.7-0.6,1.7-1.1c1.1-0.7,2.1-1.5,2.2-1.7
				c0.1-0.1,1.3-0.8,1.3-0.7s-1.8,1.7-1.9,1.8c-0.6,0.5-1.2,0.8-2.1,1.7c-0.3,0.3-0.3,0.4-0.7,0.7c-0.1,0.1-0.4,0.5-0.7,0.9
				c0.1,0.1-0.1,0.2-0.1,0.2s-0.1,0.1-0.2,0.1s-0.3-0.1-0.6-0.2c-0.3-0.2-0.3-0.3-0.5-0.5c0-0.1-0.1-0.3,0-0.6
				c0.1-0.5,0.3-0.8,0.3-1.2c0.2-0.3,0.5-0.8,0.8-1.5l0,0L90,34.7z M91.4,33.5c-0.1-0.2,0-0.4,0.3-0.7c0.3-0.4,0.6-0.6,0.7-0.6
				c0.2,0,0.3,0.1,0.5,0.2c0.2,0.1,0.3,0.3,0.3,0.3c0.1,0.1,0,0.3-0.2,0.4c-0.1,0.1-0.2,0.2-0.3,0.3c-0.2,0.2-0.4,0.3-0.5,0.4
				c-0.1,0.1-0.2,0.1-0.3,0.1c-0.1,0-0.2,0-0.3-0.1C91.5,33.6,91.5,33.6,91.4,33.5z"/>
			<path class="st1" d="M84.3,39.4c-0.1-0.1,0-0.3,0.1-0.8c0.1-0.3,0.3-0.8,0.6-1.4c-0.1,0.1-0.2,0.2-0.2,0.2L84,38.3
				c-0.6,0.7-1.1,1.2-1.7,1.5C82.1,39.9,82,40,81.8,40s-0.3-0.1-0.7-0.3c-0.3-0.2-0.3-0.4-0.5-0.7c-0.1-0.1-0.1-0.3,0-0.5
				c0-0.2,0.1-0.5,0.3-0.8c0.3-0.6,0.6-1.2,0.9-1.8l0.8-1.4c0.1-0.2,0.3-0.3,0.3-0.3s0.3,0.1,0.5,0.2c0.2,0.1,0.3,0.3,0.3,0.3
				c0,0.1,0,0.1,0,0.2c0,0,0,0.1-0.1,0.2c0,0.1-0.1,0.2-0.3,0.4c-0.1,0.2-0.3,0.5-0.5,0.7c-0.3,0.5-0.6,0.9-0.7,1.3
				c-0.2,0.4-0.3,0.7-0.2,0.7c0,0.1,0.1,0.1,0.2,0.1s0.1,0,0.2-0.1c0.2-0.1,0.3-0.2,0.7-0.3c0.3-0.2,0.5-0.4,0.7-0.5
				c0.3-0.3,0.6-0.5,0.7-0.6s0.3-0.3,0.6-0.6c0.3-0.3,0.5-0.6,0.6-0.7c0.2-0.3,0.4-0.6,0.7-1c0.1-0.2,0.2-0.3,0.3-0.3
				c0.2,0,0.3,0.1,0.6,0.2c0.2,0.1,0.3,0.3,0.3,0.4s0,0.2,0,0.3c0,0-0.1,0.2-0.3,0.6c0,0-0.1,0.1-0.1,0.2C87,36,87,36.1,86.9,36.2
				s-0.1,0.2-0.2,0.2c-0.3,0.5-0.7,1.3-0.7,1.4c-0.3,0.6,0,0.3,0,0.3c0.6-0.3,0.7-0.5,1.7-1.1c1.1-0.7,2.1-1.5,2.2-1.7
				c0.1-0.1,0.8-0.7,0.9-0.5c0,0.1-1.4,1.4-1.5,1.5c-0.6,0.5-1.2,0.8-2.1,1.7c-0.3,0.3-0.4,0.4-0.7,0.7c-0.1,0.1-0.3,0.5-0.7,0.9
				c-0.1,0.2-0.3,0.3-0.3,0.3S85.4,40,85.3,40s-0.3-0.1-0.6-0.2C84.5,39.7,84.3,39.4,84.3,39.4z"/>
			<path class="st1" d="M42.1,34.9c0.1-0.1,0.2-0.2,0.3-0.2s0.3,0.1,0.3,0.2c0.1,0.1,0.2,0.3,0.3,0.4c0,0.1,0.1,0.2,0,0.3
				c0,0.1-0.1,0.2-0.2,0.3c0,0.1-0.2,0.3-0.5,0.7l-0.1,0.1c-0.3,0.3-0.7,1.3-0.9,1.8c0.6-0.3,0.7-0.5,1.7-1.1
				c1.1-0.7,2.1-1.3,2.2-1.5c0.1-0.1,1.5-0.7,1.5-0.6c0,0.1-2.1,1.2-2.2,1.4c-0.6,0.5-1.2,0.8-2.1,1.7c-0.3,0.3-0.3,0.4-0.7,0.7
				c-0.1,0.1-0.4,0.5-0.7,0.9c-0.1,0.2-0.3,0.3-0.3,0.3s-0.1,0.1-0.2,0.1c-0.1,0-0.3-0.1-0.6-0.2c-0.3-0.2-0.4-0.3-0.5-0.5
				c-0.1-0.1-0.1-0.3,0-0.6c0.1-0.5,0.2-0.8,0.3-1.2c0.1-0.3,0.5-0.8,0.8-1.5v-0.1L42.1,34.9z M43.5,33.6c-0.1-0.2,0-0.3,0.3-0.7
				s0.6-0.6,0.7-0.6c0.1,0,0.3,0.1,0.5,0.2c0.2,0.1,0.3,0.3,0.3,0.4s0,0.3-0.2,0.3c-0.1,0.1-0.2,0.2-0.4,0.3
				c-0.2,0.2-0.3,0.3-0.5,0.3c-0.1,0.1-0.2,0.1-0.3,0.1s-0.2,0-0.3-0.1C43.6,33.9,43.5,33.8,43.5,33.6z"/>
			<path class="st1" d="M96.3,32.3c0.2-0.2,0.3-0.3,0.5-0.3c0.1,0,0.3,0,0.3,0.2c0.1,0.1,0.1,0.1,0.1,0.2c0.1,0.2-0.2,0.3-0.3,0.6
				L96,33.9c-0.2,0.2-0.4,0.4-0.6,0.7s-0.5,0.6-0.7,0.8c-0.2,0.3-0.5,0.6-0.6,0.8c-0.3,0.7-0.7,1.2-0.8,1.7c0.6-0.3,1.5-0.7,1.9-0.9
				c0.2-0.1,2.4-1.1,2.6-1.3c0.1,0,0.5-0.1,0.5-0.1c0.2,0,0.3,0,0.3,0.1s0,0.1,0,0.1s-0.1,0.1-0.2,0.1c-0.8,0.1-3.4,1.8-3.9,2.2
				c-0.3,0.2-0.7,0.6-0.9,0.8c-0.1,0.1-0.3,0.5-0.7,0.8c-0.1,0.2-0.2,0.3-0.3,0.3c0,0-0.1,0.1-0.2,0.1s-0.3-0.1-0.6-0.2
				c-0.3-0.2-0.3-0.3-0.5-0.5c-0.1-0.1-0.1-0.3,0-0.6c0.1-0.6,0.3-1.1,0.7-1.8c0.3-0.6,0.6-1.2,1.1-1.8
				C95.3,33.1,96.1,32.5,96.3,32.3z"/>
			<path class="st1" d="M104.9,31.5c0.2-0.2,0.5-0.3,0.6-0.3c0.2,0,0.3,0,0.5,0.3c0.1,0.2-0.1,0.5-0.3,0.7l-1.3,1.5
				c-0.7,0.7-2.1,1.8-2.6,2.6c-0.2,0.3-0.3,0.7-0.6,0.8c-0.1,0.3-0.3,0.6-0.3,0.8c0.6-0.3,1.1-0.6,1.7-0.7c0.2,0,0.3-0.1,0.7-0.2
				c0.3-0.1,0.6-0.1,0.6-0.1c0.2,0,0.3,0.1,0.3,0.2c0,0.1,0,0.2-0.3,0.2c-0.8,0.1-1.5,0.3-2.1,0.7c-0.3,0.2-0.5,0.4-0.7,0.6
				c-0.2,0.2-0.4,0.6-0.7,1.1c-0.1,0.2-0.2,0.3-0.2,0.3c-0.1,0-0.1,0.1-0.2,0.1s-0.3-0.1-0.6-0.2c-0.3-0.2-0.3-0.3-0.5-0.5
				c-0.1-0.1-0.1-0.3,0-0.6c0.1-0.7,0.3-1.3,0.7-1.8v-0.1L99.5,37c-0.9,1-1.8,1.8-2.6,2.5c-0.3,0.2-0.5,0.3-0.6,0.3
				c-0.1,0.1-0.3,0.1-0.3,0.1c-0.2,0-0.5-0.1-0.7-0.3c-0.3-0.3-0.5-0.5-0.6-0.8c-0.3-0.7,0.2-1.4,1.2-2.3c0.5-0.5,1-0.8,1.5-1.1
				c0.6-0.4,1.1-0.6,1.5-0.7c0.2-0.1,0.5-0.1,0.7-0.1c0.3,0,0.5,0.1,0.7,0.2c0.2,0.1,0.4,0.3,0.5,0.5l0,0c0.3-0.5,1.9-1.8,2.4-2.4
				C103.5,32.7,104.3,32,104.9,31.5z M100.2,35.8c0-0.1-0.1-0.1-0.2-0.1s-0.3,0.1-0.7,0.2c-0.3,0.1-0.6,0.2-0.7,0.3
				c-0.6,0.3-1,0.6-1.5,1c-0.5,0.3-0.7,0.7-0.9,1.1c0,0.1-0.1,0.2,0,0.2c0,0.1,0.1,0.1,0.2,0.1c0.2,0,0.5-0.1,0.8-0.3
				c0.8-0.3,1.5-0.8,2.2-1.5C99.7,36.4,100.1,36.1,100.2,35.8L100.2,35.8z"/>
		</g>
	</g>
</g>
</svg>
