<?xml version="1.0" encoding="utf-8"?>
<!-- Generator: Adobe Illustrator 21.1.0, SVG Export Plug-In . SVG Version: 6.00 Build 0)  -->
<svg version="1.1" id="Layer_1" xmlns="http://www.w3.org/2000/svg" xmlns:xlink="http://www.w3.org/1999/xlink" x="0px" y="0px"
	 viewBox="0 0 300 300" style="enable-background:new 0 0 300 300;" xml:space="preserve">
<style type="text/css">
	.st0{fill:#FFC527;}
	.st1{fill:#222720;}
</style>
<g>
	<rect class="st0" width="300" height="300"/>
	<path class="st1" d="M234.8,104.1c-7.5-8.3-18-12.8-29.5-12.8c-15.1,0-22.8,6.8-27.4,12.3V60.2h-29.2v16.2h7.2v101.5h21v-11.6
		c5.9,9,15.4,13.7,27.6,13.7c12.5,0,23.1-4.4,30.7-12.8c7.2-7.9,11.1-19.1,11.1-31.5C246.2,123.4,242.2,112.2,234.8,104.1z
		 M224.2,135.6c0,6.5-2.3,12.5-6.4,17c-4.4,4.9-10.5,7.4-17.6,7.4c-11.1,0-23.1-7.6-23.1-24.4c0-16.8,11.9-24.4,23.1-24.4
		c7.1,0,13.1,2.6,17.6,7.4C221.9,123.1,224.2,129.2,224.2,135.6z"/>
	<path class="st1" d="M135.4,160.2c-4.3,0-7.5-2.3-9.5-4.6c-1.1-1.3-20.2-23.8-20.2-23.8l36.4-38.5h-28.4l-31.4,33.8V60.3H53.2v16.2
		h7.2v101.4h21.9v-41.5l23.8,29.1c7.5,10.2,13.2,13.5,23.5,13.5c2.1,0,8.6-0.2,11.3-0.9l0.4-0.1v-17.7
		C141.4,160.2,136.3,160.2,135.4,160.2z"/>
	<polygon class="st1" points="88.4,195 88.4,212.2 69.6,212.2 69.6,195 60.5,195 60.5,238.1 69.6,238.1 69.6,220.9 88.4,220.9 
		88.4,238.1 97.6,238.1 97.6,195 	"/>
	<path class="st1" d="M126.5,194.5c-12.1,0-22,9.9-22,22.1c0,12.2,9.9,22.1,22,22.1c12.2,0,22-9.9,22-22.1
		C148.6,204.4,138.7,194.5,126.5,194.5z M139.5,216.5c0,7.2-5.8,13-12.9,13c-7.1,0-12.9-5.8-12.9-13c0-7.2,5.8-13,12.9-13
		C133.7,203.5,139.5,209.4,139.5,216.5z"/>
	<polygon class="st1" points="191.2,195 177.8,213.7 165,195 155.8,195 155.8,238.1 165,238.1 165,211.1 177.8,229.7 190.7,211 
		190.7,238.1 199.9,238.1 199.9,195 	"/>
	<polygon class="st1" points="241.5,203.7 241.5,195 209.8,195 209.8,238.1 241.5,238.1 241.5,229.5 218.9,229.5 218.9,220.9 
		235.9,220.9 235.9,212.2 218.9,212.2 218.9,203.7 	"/>
</g>
</svg>
