<svg id="Layer_1" data-name="Layer 1" xmlns="http://www.w3.org/2000/svg" viewBox="0 0 337.37 77.89"><defs><style>.cls-1{fill:#94c947}.cls-2{fill:#005596}</style></defs><title>MTH_Logo_RGB_Standard</title><path class="cls-1" d="M152 72h-2.4v-4.8h-.85v-2h.85v-.86a3.12 3.12 0 0 1 .69-2.38 3.06 3.06 0 0 1 2.36-1.08 2.17 2.17 0 0 1 1 .24v2.08a2.06 2.06 0 0 0-.84-.22c-.63 0-.84.37-.84 1.13v1.1h1.68v2H152zM162.54 68.6c0 2.3-1.9 3.61-4.08 3.61s-4.08-1.29-4.08-3.61 1.9-3.61 4.08-3.61 4.08 1.3 4.08 3.61zm-5.62 0a1.55 1.55 0 0 0 3.09 0 1.55 1.55 0 0 0-3.09 0zM165.9 66.32a2.35 2.35 0 0 1 2.19-1.2h.46v2.31a1.91 1.91 0 0 0-1-.22c-1.33 0-1.66.88-1.66 2V72h-2.4v-6.79h2.4zM179.65 69h-5.06a1.35 1.35 0 0 0 1.51 1.51 1.21 1.21 0 0 0 1.15-.62h2.31a2.77 2.77 0 0 1-1.28 1.75 4.09 4.09 0 0 1-2.17.57c-2.24 0-3.92-1.27-3.92-3.61a3.73 3.73 0 0 1 7.46.15zm-2.23-1.39a1.44 1.44 0 0 0-2.79 0zM183.15 66.08a2.33 2.33 0 0 1 2.19-1.08c1.83 0 2.55 1.14 2.55 2.81V72h-2.4v-3.32c0-.64.11-1.78-1.08-1.78-1 0-1.26.73-1.26 1.57V72h-2.4v-6.79h2.4zM196.18 69h-5.06a1.35 1.35 0 0 0 1.5 1.51 1.19 1.19 0 0 0 1.15-.62h2.31a2.73 2.73 0 0 1-1.28 1.75 4.06 4.06 0 0 1-2.16.57c-2.25 0-3.93-1.27-3.93-3.61a3.74 3.74 0 0 1 7.47.15zm-2.24-1.39a1.44 1.44 0 0 0-2.78 0zM199.68 66.32a2.37 2.37 0 0 1 2.2-1.2h.46v2.31a1.91 1.91 0 0 0-1-.22c-1.33 0-1.66.88-1.66 2V72h-2.41v-6.79h2.41zM211 71.33c0 2.88-1.43 4-3.92 4-1.56 0-3.65-.81-3.86-2.59h2.69a.82.82 0 0 0 .45.51 1.55 1.55 0 0 0 .69.16c1.29 0 1.54-.84 1.54-1.94v-.32a2.82 2.82 0 0 1-2.15.93 3.3 3.3 0 0 1-3.34-3.46 3.51 3.51 0 0 1 3.43-3.62 2.32 2.32 0 0 1 2 .93v-.71H211zm-5.42-2.78a1.55 1.55 0 0 0 3.09 0 1.55 1.55 0 0 0-3.09 0zM211.74 65.21h2.77l1.81 3.47 1.77-3.47h2.74l-5.43 10.16h-2.7l2.3-4.31zM225.32 66.75v2h-3.78v-2zM234 69h-5a1.35 1.35 0 0 0 1.5 1.51 1.19 1.19 0 0 0 1.15-.62h2.31a2.73 2.73 0 0 1-1.28 1.75 4.06 4.06 0 0 1-2.16.57c-2.25 0-3.93-1.27-3.93-3.61a3.74 3.74 0 0 1 7.47.15zm-2.23-1.39a1.37 1.37 0 0 0-1.37-1.07 1.34 1.34 0 0 0-1.4 1.07zM238 72h-2.4v-4.8h-.85v-2h.85v-.86a3.11 3.11 0 0 1 .68-2.38 3.08 3.08 0 0 1 2.37-1.08 2.17 2.17 0 0 1 1 .24v2.08a2.06 2.06 0 0 0-.85-.22c-.62 0-.83.37-.83 1.13v1.1h1.68v2H238zM244 72h-2.41v-4.8h-.84v-2h.84v-.86a3.12 3.12 0 0 1 .69-2.38 3.06 3.06 0 0 1 2.36-1.08 2.17 2.17 0 0 1 1 .24v2.08a2 2 0 0 0-.84-.22c-.62 0-.83.37-.83 1.13v1.1h1.67v2H244zM249.52 62.61a1.35 1.35 0 1 1-1.35-1.35 1.36 1.36 0 0 1 1.35 1.35zm-.15 9.39H247v-6.79h2.4zM255.84 67.42a2.05 2.05 0 0 0-1.24-.48 1.66 1.66 0 1 0 0 3.32 1.82 1.82 0 0 0 1.2-.47v2a3.77 3.77 0 0 1-1.69.38 3.57 3.57 0 0 1-3.68-3.54 3.62 3.62 0 0 1 3.83-3.63 3.3 3.3 0 0 1 1.58.39zM259.62 62.61a1.35 1.35 0 1 1-1.34-1.35 1.36 1.36 0 0 1 1.34 1.35zm-.14 9.39h-2.41v-6.79h2.41zM268 69h-5a1.35 1.35 0 0 0 1.5 1.51 1.19 1.19 0 0 0 1.15-.62h2.31a2.73 2.73 0 0 1-1.28 1.75 4.09 4.09 0 0 1-2.17.57c-2.24 0-3.92-1.27-3.92-3.61a3.73 3.73 0 0 1 7.46.15zm-2.23-1.39a1.44 1.44 0 0 0-2.79 0zM271.52 66.08a2.35 2.35 0 0 1 2.2-1.08c1.82 0 2.55 1.14 2.55 2.81V72h-2.41v-3.32c0-.64.11-1.78-1.08-1.78-1 0-1.26.73-1.26 1.57V72h-2.4v-6.79h2.4zM280.48 72h-2.4v-4.8h-.78v-2h.78v-2h2.4v2h1.36v2h-1.36zM289.54 61v5a2.5 2.5 0 0 1 2.2-1c1.71 0 2.55 1.13 2.55 2.85V72h-2.41v-3.49c0-.79-.12-1.61-1.08-1.61s-1.26.82-1.26 1.61V72h-2.4V61zM303.27 68.6c0 2.3-1.9 3.61-4.08 3.61s-4.09-1.29-4.09-3.61 1.9-3.6 4.09-3.6 4.08 1.29 4.08 3.6zm-5.63 0a1.55 1.55 0 0 0 3.09 0 1.55 1.55 0 0 0-3.09 0zM306.49 66.06a2.5 2.5 0 0 1 2.17-1.06 2.47 2.47 0 0 1 2.34 1.28 2.57 2.57 0 0 1 2.3-1.29c1.72 0 2.31 1.12 2.31 2.68V72h-2.4v-3.25c0-.7 0-1.85-1-1.85S311 68 311 68.75V72h-2.41v-3.25c0-.75 0-1.9-1.07-1.9s-1.07 1.15-1.07 1.9V72h-2.4v-6.79h2.4zM323.85 69h-5.06a1.35 1.35 0 0 0 1.51 1.51 1.19 1.19 0 0 0 1.14-.62h2.32a2.77 2.77 0 0 1-1.28 1.75 4.12 4.12 0 0 1-2.17.57c-2.25 0-3.92-1.27-3.92-3.61a3.73 3.73 0 0 1 7.46.15zm-2.23-1.39a1.44 1.44 0 0 0-2.79 0zM329.16 67a3 3 0 0 0-1.29-.33c-.28 0-.76.12-.76.47s.76.52 1.09.59c1.12.22 2 .75 2 2 0 1.78-1.62 2.52-3.19 2.52a5.28 5.28 0 0 1-2.74-.78l.87-1.68a3.82 3.82 0 0 0 1.91.69c.3 0 .75-.14.75-.51 0-.53-.75-.56-1.51-.76a1.7 1.7 0 0 1-1.5-1.78c0-1.66 1.5-2.4 3-2.4a5.36 5.36 0 0 1 2.24.43z"/><path class="cls-2" d="M8.64 64.59a2.73 2.73 0 0 0-1.72-.66c-.48 0-1.11.28-1.11.83s.7.81 1.15.95l.66.2c1.39.41 2.46 1.11 2.46 2.72a3.38 3.38 0 0 1-1 2.68 4.39 4.39 0 0 1-2.83.94 6.09 6.09 0 0 1-3.5-1.14L3.83 69a3.52 3.52 0 0 0 2.3 1c.6 0 1.25-.31 1.25-1s-1-1-1.57-1.13c-1.63-.46-2.7-.89-2.7-2.82a3.23 3.23 0 0 1 3.44-3.34 6.88 6.88 0 0 1 3.12.82zM18.35 69h-5.06a1.35 1.35 0 0 0 1.5 1.51 1.19 1.19 0 0 0 1.15-.62h2.31A2.73 2.73 0 0 1 17 71.64a4.08 4.08 0 0 1-2.16.57c-2.25 0-3.93-1.27-3.93-3.61a3.46 3.46 0 0 1 3.72-3.6 3.45 3.45 0 0 1 3.72 3.76zm-2.24-1.39a1.44 1.44 0 0 0-2.78 0zM22.2 72h-2.4v-4.8H19v-2h.78v-2h2.4v2h1.36v2H22.2zM27.62 72h-2.41v-4.8h-.77v-2h.77v-2h2.41v2H29v2h-1.38zM32.69 62.61a1.35 1.35 0 1 1-1.35-1.35 1.36 1.36 0 0 1 1.35 1.35zM32.55 72h-2.41v-6.79h2.41zM36.4 66.08A2.34 2.34 0 0 1 38.6 65c1.82 0 2.55 1.14 2.55 2.81V72h-2.41v-3.32c0-.64.11-1.78-1.08-1.78-1 0-1.26.73-1.26 1.57V72H34v-6.79h2.4zM50 71.33c0 2.88-1.43 4-3.93 4-1.56 0-3.64-.81-3.85-2.59H45a.82.82 0 0 0 .45.51 1.52 1.52 0 0 0 .69.16c1.29 0 1.54-.84 1.54-1.94v-.32a2.82 2.82 0 0 1-2.15.93 3.3 3.3 0 0 1-3.34-3.46A3.51 3.51 0 0 1 45.61 65a2.34 2.34 0 0 1 2 .93v-.71H50zm-5.42-2.78a1.55 1.55 0 0 0 3.09 0 1.55 1.55 0 0 0-3.09 0zM59 72h-2.44v-4.8h-.78v-2h.78v-2H59v2h1.36v2H59zM63.89 61v5a2.5 2.5 0 0 1 2.2-1c1.71 0 2.54 1.13 2.54 2.85V72h-2.4v-3.49c0-.79-.12-1.61-1.08-1.61s-1.26.82-1.26 1.61V72h-2.4V61zM77.05 69H72a1.35 1.35 0 0 0 1.51 1.51 1.21 1.21 0 0 0 1.15-.62H77a2.77 2.77 0 0 1-1.28 1.75 4.09 4.09 0 0 1-2.17.57c-2.25 0-3.92-1.27-3.92-3.61a3.73 3.73 0 0 1 7.46.15zm-2.23-1.39a1.44 1.44 0 0 0-2.79 0zM87.42 67a3 3 0 0 0-1.3-.33c-.27 0-.75.12-.75.47s.75.52 1.09.59c1.12.22 2 .75 2 2 0 1.78-1.62 2.52-3.19 2.52a5.28 5.28 0 0 1-2.74-.78l.87-1.68a3.82 3.82 0 0 0 1.91.69c.3 0 .75-.14.75-.51 0-.53-.75-.56-1.51-.76A1.7 1.7 0 0 1 83 67.39c0-1.66 1.5-2.4 3-2.4a5.36 5.36 0 0 1 2.24.43zM92.48 72h-2.41v-4.8h-.77v-2h.77v-2h2.41v2h1.36v2h-1.36zM102.41 72H100v-.76a2.36 2.36 0 0 1-2 1 3.49 3.49 0 0 1-3.42-3.62 3.45 3.45 0 0 1 3.4-3.6 2.77 2.77 0 0 1 2.1.88v-.66h2.4zM97 68.6a1.55 1.55 0 0 0 3.09 0 1.55 1.55 0 0 0-3.09 0zM106.28 66.08a2.34 2.34 0 0 1 2.2-1.08c1.82 0 2.55 1.14 2.55 2.81V72h-2.41v-3.32c0-.64.11-1.78-1.08-1.78-1 0-1.26.73-1.26 1.57V72h-2.4v-6.79h2.4zM117.58 71.23a2.36 2.36 0 0 1-2 1 3.49 3.49 0 0 1-3.42-3.62 3.45 3.45 0 0 1 3.4-3.6 2.77 2.77 0 0 1 2.1.88V61H120v11h-2.4zm-3-2.63a1.55 1.55 0 0 0 3.09 0 1.55 1.55 0 0 0-3.09 0zM128.77 72h-2.41v-.76a2.38 2.38 0 0 1-2 1 3.48 3.48 0 0 1-3.42-3.62 3.44 3.44 0 0 1 3.39-3.6 2.77 2.77 0 0 1 2.1.88v-.66h2.41zm-5.42-3.39a1.55 1.55 0 0 0 3.09 0 1.55 1.55 0 0 0-3.09 0zM132.64 66.32a2.37 2.37 0 0 1 2.2-1.2h.46v2.31a1.91 1.91 0 0 0-1-.22c-1.33 0-1.66.88-1.66 2V72h-2.41v-6.79h2.41zM141.45 71.23a2.36 2.36 0 0 1-2 1 3.49 3.49 0 0 1-3.45-3.64 3.45 3.45 0 0 1 3.4-3.6 2.77 2.77 0 0 1 2.1.88V61h2.4v11h-2.4zm-3-2.63a1.55 1.55 0 0 0 3.09 0 1.55 1.55 0 0 0-3.09 0zM52.28 25.8h-4.79v-3.21s.19-8.23 11.3-8.23c0 0-6.51.29-6.51 8.47zM126.35 40.34c0 2-.12 2.57 2 2.6.28 0 .81 0 .81.37s-.25.41-.53.41c-1.19 0-2.32-.13-3.51-.13s-2.38.13-3.57.13c-.28 0-.54-.06-.54-.41s.51-.37.79-.37c2.19 0 2-.63 2-2.6V27.49c0-2 .16-2.57-2-2.57-.28 0-.79 0-.79-.4s.22-.44.54-.44c1.19 0 2.32.12 3.51.12s2.38-.12 3.57-.12c.28 0 .53.09.53.44s-.53.4-.81.4c-2.2 0-2 .6-2 2.57v4c0 1.16-.06 1.16 1.1 1.16h8.77c1 0 1.1-.09 1.1-1.16v-4c0-2 .15-2.57-2-2.57-.28 0-.78 0-.78-.4s.22-.44.53-.44c1.19 0 2.32.12 3.51.12s2.38-.12 3.57-.12c.29 0 .53.09.53.44s-.53.4-.81.4c-2.19 0-2 .6-2 2.57v12.85c0 2-.12 2.57 2 2.6.28 0 .81 0 .81.37s-.24.41-.53.41c-1.19 0-2.32-.13-3.51-.13s-2.38.13-3.57.13c-.28 0-.53-.06-.53-.41s.5-.37.78-.37c2.19 0 2-.63 2-2.6v-5.61c0-1.16 0-1.16-1.1-1.16h-8.67c-1.11 0-1.2.06-1.2 1.16z"/><path class="cls-2" d="M150 43.37c-3.54 0-5.51-3.85-5.51-6.95s1.89-6.42 5.34-6.42c3.63 0 5.42 3.6 5.42 6.77 0 3-1.91 6.6-5.25 6.6zm-.09.6a7.51 7.51 0 0 0 7.77-7.39 7.09 7.09 0 0 0-2.44-5.33 8.07 8.07 0 0 0-5.33-1.81 7.9 7.9 0 0 0-5.64 2.09 7.11 7.11 0 0 0-2.13 5 7.49 7.49 0 0 0 7.72 7.47z"/><path class="cls-2" d="M159.89 34.51c0-.44 0-1.66-.32-2a1.34 1.34 0 0 0-.91-.24h-.4c-.19 0-.38-.07-.38-.26 0-.37.44-.43.72-.53a7 7 0 0 0 2.6-1.63c.16-.16.32-.4.57-.4s.28.28.28.5c0 .44-.1 1.88.18 1.88.48 0 2.07-2.38 4.86-2.38 3.17 0 3.51 2.72 3.95 2.72s2-2.72 4.92-2.72a3.88 3.88 0 0 1 3.32 1.44c1 1.19.94 2.69.94 4.16v5.35c0 1.35-.28 2.41 1.41 2.57.31 0 .88 0 .88.4s-.16.35-.38.35c-1 0-2-.13-2.95-.13s-2 .13-3 .13c-.22 0-.44-.06-.44-.31 0-.47.53-.41.88-.44 1.69-.16 1.41-1.22 1.41-2.57v-5.33a7.15 7.15 0 0 0-.41-3 3 3 0 0 0-2.79-1.44 4.68 4.68 0 0 0-2.72 1.22c-1 .94-1 1.63-1 2.95v5.6c0 1.35-.28 2.41 1.41 2.57.32 0 .88 0 .88.4s-.16.35-.37.35c-1 0-2-.13-3-.13s-2 .13-3 .13c-.22 0-.43-.06-.43-.31 0-.47.53-.41.87-.44 1.69-.16 1.41-1.22 1.41-2.57v-5.33a7.31 7.31 0 0 0-.4-3 3 3 0 0 0-2.79-1.44 4.71 4.71 0 0 0-2.73 1.22c-1 .94-1 1.63-1 2.95v5.6c0 1.35-.28 2.41 1.41 2.57.31 0 .87 0 .87.4s-.15.35-.37.35c-1 0-2-.13-3-.13s-2 .13-3 .13c-.22 0-.44-.06-.44-.31 0-.47.53-.41.88-.44 1.69-.16 1.41-1.22 1.41-2.57zM185.83 34.32c-.35 0-1.07.1-1.07-.4a4 4 0 0 1 .79-1.82 5 5 0 0 1 4.07-2.1 3.68 3.68 0 0 1 2.72 1 2.94 2.94 0 0 1 .82 1.85c0 .75-.47 1.1-1.16 1.25a19.78 19.78 0 0 1-3.63.25zm9.46.75c.31 0 .38-.28.38-.53a5.64 5.64 0 0 0-1.1-3.16 5.73 5.73 0 0 0-4.51-1.94 8.41 8.41 0 0 0-5.64 2.09 6.39 6.39 0 0 0-2.26 5.24 7.33 7.33 0 0 0 12.09 5.45c.22-.19 1.23-1 1.23-1.41a.25.25 0 0 0-.25-.25c-.41 0-1.57 2-4.64 2-3.79 0-6.08-3-6.08-6.54 0-1 .32-1 1.29-1zM196.35 39.8c0-.25.07-.68.41-.68 1.13 0-.15 4.29 4.11 4.29 1.84 0 3.82-1.07 3.82-3.07 0-1.82-1.51-2.51-3-3-1.94-.63-4.79-1.41-4.79-3.95a3.56 3.56 0 0 1 1.66-2.91 6.12 6.12 0 0 1 3.69-1 11 11 0 0 1 3.23.53c.53.25.35.94.35 1.41 0 .19.22 1.53-.32 1.53-.78 0-.43-2.94-3.82-2.94-1.28 0-2.88.87-2.88 2.31 0 3.67 7.83 2 7.83 7.12 0 3-3.29 4.57-5.95 4.57a10.58 10.58 0 0 1-4-.94c-.5-.22-.44-.62-.44-1.13zM96.65 17.67V4H80.83v7.48l-22-8.64-51.47 17.1h13.71L58.68 8l46.57 18.23h13.2zM85.8 8.88h5.88v6.83L85.8 13.4z"/><path d="M6.56 23.81h5.07l4 10.58 4.25-10.58H25l3 19.78h-5.14l-1.45-11.38h-.05l-4.75 11.38h-2L10 32.21 8.32 43.59H3.21zM33.66 34.91a2.87 2.87 0 0 1 5.54 0zm10 2.26c0-4.59-2.7-7.48-7.37-7.48-4.38 0-7.45 2.7-7.45 7.19 0 4.65 3.33 7.16 7.79 7.16 3.07 0 6.09-1.44 6.85-4.62h-4.62a2.39 2.39 0 0 1-2.29 1.24 2.68 2.68 0 0 1-3-3h10.06zM50.06 32.34a4.68 4.68 0 0 1 4.4-2.34h.92v4.59a3.91 3.91 0 0 0-2-.44c-2.65 0-3.3 1.76-3.3 4.06v5.43h-4.8v-13.5h4.78zM56.37 30.14h4.77V43.6h-4.77zM61.44 23a2.68 2.68 0 1 1-2.68-2.68A2.69 2.69 0 0 1 61.44 23zM68.47 43.59h-4.78v-9.52h-1.54v-3.93h1.54v-4.05h4.78v4.05h2.7v3.93h-2.7zM79.46 33.84a2.93 2.93 0 0 1 3.07 3 3.07 3.07 0 0 1-6.14 0 2.92 2.92 0 0 1 3.07-3zm7.68-3.7h-4.77v1.31a5.47 5.47 0 0 0-4.17-1.76 6.86 6.86 0 0 0-6.75 7.16 6.92 6.92 0 0 0 6.8 7.15 4.7 4.7 0 0 0 4.06-1.94h.06v1.49h4.77zM96.75 33.73a2.92 2.92 0 0 1 3.06 3 3.07 3.07 0 0 1-6.14 0 2.93 2.93 0 0 1 3.08-3zm7.68-3.59h-4.77v1.41h-.06a4.58 4.58 0 0 0-4-1.86c-4.12 0-6.9 3.36-6.9 7.29a6.54 6.54 0 0 0 6.64 6.88A5.62 5.62 0 0 0 99.66 42v.63c0 2.18-.5 3.86-3.07 3.86a3.16 3.16 0 0 1-1.37-.32 1.64 1.64 0 0 1-.89-1H89c.42 3.54 4.56 5.15 7.66 5.15 5 0 7.79-2.32 7.79-8zM110.75 34.91a2.87 2.87 0 0 1 5.54 0zm10 2.26c0-4.59-2.7-7.48-7.37-7.48-4.38 0-7.45 2.7-7.45 7.19 0 4.65 3.33 7.16 7.79 7.16 3.07 0 6.09-1.44 6.84-4.62H116a2.39 2.39 0 0 1-2.29 1.24 2.68 2.68 0 0 1-3-3h10zM210.54 32.66a1.84 1.84 0 0 1-1.37.57 1.95 1.95 0 1 1 1.37-.57zM208 30.11a1.63 1.63 0 0 0-.48 1.18 1.61 1.61 0 0 0 .48 1.18 1.67 1.67 0 1 0 2.36-2.36 1.61 1.61 0 0 0-1.18-.48 1.63 1.63 0 0 0-1.18.48zm1.15.11a1.63 1.63 0 0 1 .58.08.53.53 0 0 1 .33.54.46.46 0 0 1-.21.42.7.7 0 0 1-.31.1.55.55 0 0 1 .37.21.56.56 0 0 1 .12.33v.31a.75.75 0 0 0 0 .11h-.35v-.23c0-.25-.06-.41-.2-.49a1 1 0 0 0-.42-.06h-.29v.82h-.37v-2.14zm.4.35a.86.86 0 0 0-.45-.08h-.32v.76h.34a1 1 0 0 0 .35-.05.37.37 0 0 0 .08-.63zM334.17 65.48a1.87 1.87 0 0 1-1.34.55 1.88 1.88 0 0 1-1.83-1.89 1.88 1.88 0 0 1 1.88-1.88 1.88 1.88 0 0 1 1.89 1.88 1.87 1.87 0 0 1-.6 1.34zM331.68 63a1.63 1.63 0 0 0 0 2.29 1.55 1.55 0 0 0 1.15.48 1.63 1.63 0 1 0-1.15-2.77zm1.12.1a1.54 1.54 0 0 1 .56.08.51.51 0 0 1 .33.52.45.45 0 0 1-.21.41.7.7 0 0 1-.3.1.56.56 0 0 1 .36.2.54.54 0 0 1 .11.32V65a.41.41 0 0 0 0 .1h-.34v-.2a.49.49 0 0 0-.2-.47.94.94 0 0 0-.41-.07h-.28v.81h-.37V63.1zm.39.34a1 1 0 0 0-.44-.08h-.31v.74h.33a1 1 0 0 0 .34 0 .31.31 0 0 0 .22-.32.3.3 0 0 0-.14-.34z"/></svg>